<svg width="474" height="474" viewBox="0 0 474 474" fill="none" xmlns="http://www.w3.org/2000/svg">
<g clip-path="url(#clip0_10_453)">
<path d="M462.997 219.747C462.997 219.747 463.404 220.003 463.863 220.311C467.882 222.08 471.441 223.54 475 225C475 227.042 475 229.083 475 231.562C471.739 233.696 468.478 235.392 464.519 237.111C462.898 237.798 461.975 238.463 461.052 239.127C461.052 239.127 461.036 239.041 460.736 239.059C459.649 239.775 458.863 240.473 458.077 241.171C458.077 241.171 458.073 241.081 457.745 241.065C456.625 241.723 455.833 242.395 455.042 243.067C455.042 243.067 455 243.007 454.717 243.04C453.95 243.66 453.467 244.246 452.983 244.832C452.983 244.832 452.54 244.969 451.924 244.984C450.537 244.99 449.765 244.982 449.055 244.626C452.6 241.899 454.433 239.183 451.493 235.891C447.975 236.888 444.866 237.768 441.944 238.372C446.764 235.179 451.396 232.262 456.035 229.711C456.638 234.501 459.175 234.674 463.098 231.978C460.96 230.922 458.823 229.865 456.926 228.507C459.654 226.824 459.945 224.939 458.696 222.482C457.969 221.053 457.596 219.444 457.407 218C459.105 218.465 460.461 218.845 461.816 219.226C461.816 219.226 461.985 219.166 462.017 219.39C462.048 219.613 462.505 219.804 462.505 219.804L462.997 219.747ZM465.708 229.367C465.811 230.485 465.913 231.603 466.016 232.721C466.843 232.362 467.669 232.003 468.496 231.643C467.796 230.806 467.096 229.968 465.708 229.367Z" fill="#C35D32"/>
<path d="M1 216.469C1.7218 215.913 2.4436 215.826 3.55579 216.115C4.4313 218.653 2.60633 222.125 7.06611 222.491C7.36238 230.665 7.61927 238.376 8.02408 246.079C8.14583 248.396 8.67924 250.692 8.6859 252.998C7.89709 253.004 7.44643 253.009 6.84587 252.678C5.31103 248.132 3.92609 243.922 2.45883 239.462C2.46415 239.46 1.73207 239.73 1 240C1 232.312 1 224.625 1 216.469Z" fill="#D77846"/>
<path d="M1 201.428C2.92186 200.646 4.84573 200.01 6.76496 200.024C8.45138 200.036 10.1326 200.776 11.8161 201.194C10.9951 203.033 10.6217 205.86 9.24981 206.481C7.11572 207.446 4.30286 206.912 1.38884 207.007C1 205.286 1 203.571 1 201.428Z" fill="#FEFEFE"/>
<path d="M475 224.667C471.441 223.54 467.882 222.08 464.102 220.342C467.342 221.02 470.803 221.975 474.632 222.965C475 223.444 475 223.889 475 224.667Z" fill="#FAE8D5"/>
<path d="M21.8529 288.076C20.6341 286.384 19.4153 284.692 18.0459 282.331C17.9457 280.767 17.9961 279.874 18.3864 279.032C20.3614 280.899 21.6856 283.232 23.6885 284.436C30.2675 288.391 37.1034 291.917 43.821 295.644C55.3069 302.015 66.721 308.519 78.2743 314.766C86.7542 319.351 95.4085 323.613 104.147 328.322C118.487 336.428 132.666 344.232 146.893 352.277C146.942 352.518 147.032 353.002 147.239 353.273C148.315 354.667 149.186 355.79 149.703 356.975C146.231 356.029 143.112 355.021 139.775 353.742C134.927 351.025 130.34 348.491 125.644 346.18C123.819 345.282 121.746 344.888 119.786 344.264C119.786 344.264 119.952 344.262 119.834 343.931C118.558 342.441 117.567 341.019 116.215 340.172C111.404 337.157 106.623 334.026 101.536 331.544C97.5311 329.591 93.091 328.53 88.8444 327.073C88.6726 327.074 88.5008 327.075 88.0031 326.842C87.5177 326.336 87.2858 326.158 86.9813 326.074C86.9813 326.074 87.0113 326.022 86.8977 325.677C83.6812 323.573 80.6025 321.771 77.4706 320.067C70.2875 316.158 63.0784 312.297 55.7903 308.088C55.0974 307.536 54.494 307.313 53.935 307.1C53.9794 307.11 53.8979 307.151 53.9057 306.778C51.7021 304.92 49.3719 303.581 47.3045 301.917C43.2777 298.674 37.0388 298.246 35.5866 293.845C31.6939 291.715 28.8875 290.018 25.9311 288.643C24.7412 288.089 23.2221 288.244 21.8529 288.076Z" fill="#D57D4C"/>
<path d="M274.446 365.012C257.272 376.577 240.139 388.204 222.843 399.583C221.502 400.466 219.014 399.606 217.314 399.3C218.661 398.571 219.752 398.098 220.843 397.625C220.259 396.589 219.777 395.475 219.065 394.535C218.124 393.295 217.003 392.192 216.336 391.023C218.024 391.633 219.59 391.976 220.604 392.915C224.903 396.9 228.436 393.401 231.476 391.325C232.597 390.56 231.657 386.778 231.657 383.61C234.966 380.003 235.922 386.678 238.386 386.636C243.991 383.024 249.293 379.608 254.757 376.087C252.081 372.926 249.969 374.724 248.032 376.523C246.056 378.358 244.196 380.072 241.278 378.161C243.657 375.659 245.845 373.358 248.477 371.045C251.565 371.17 254.218 371.218 256.853 371.466C260.917 371.849 265.962 369.055 267.537 365.052C265.147 365.74 263.074 366.517 260.931 366.918C256.642 367.72 252.315 368.316 247.645 368.892C247.062 368.681 246.837 368.575 246.775 368.185C253.309 363.778 259.681 359.655 266.032 355.862C263.647 358.365 261.281 360.54 258.915 362.714C259.167 363.137 259.419 363.56 259.671 363.983C265.618 364.464 268.781 357.645 274.479 357.474C274.485 357.887 274.491 358.301 274.496 358.715C276.965 358.793 279.433 358.871 282.21 358.977C282.723 359.019 282.928 359.034 283.134 359.048C282.894 359.321 282.654 359.593 281.854 359.947C280.873 360.383 280.453 360.737 280.033 361.092C280.033 361.092 280.021 361.012 279.728 361.041C279.013 361.485 278.592 361.9 278.171 362.316C278.171 362.316 278.165 362.166 277.999 362.183C277.546 362.531 277.259 362.861 276.972 363.19C276.825 363.37 276.678 363.549 276.029 363.926C275.301 364.251 275.111 364.418 274.956 364.627C274.956 364.627 274.778 364.919 274.611 364.965C274.445 365.011 274.446 365.012 274.446 365.012Z" fill="#BD5D31"/>
<path d="M215.959 391.03C217.003 392.192 218.124 393.295 219.065 394.535C219.777 395.475 220.259 396.589 220.843 397.625C219.752 398.098 218.661 398.571 217.159 399.051C209.267 394.75 201.785 390.441 193.918 386.038C193.531 385.943 193.47 385.904 193.47 385.904C193.47 385.904 193.226 385.927 193.084 385.495C192.565 384.537 192.306 383.811 191.796 383.516C184.849 379.498 177.896 375.488 170.864 371.623C169.799 371.037 168.326 371.194 167.041 371.007C167.041 371.007 166.918 370.923 166.885 370.744C166.748 370.425 166.653 370.279 166.567 370.128C163.913 368.802 161.259 367.477 158.25 365.643C156.932 364.372 155.916 363.667 155.017 362.837C153.312 361.262 151.674 359.616 150.391 357.999C151.54 357.986 152.308 357.974 153.461 357.972C154.876 358.008 155.905 358.034 157.105 358.295C157.869 359.012 158.461 359.494 159.248 360.242C160.299 360.669 161.156 360.83 162.246 361.014C162.478 361.037 162.946 361.039 163.012 361.352C163.723 362.1 164.368 362.535 165.184 363.21C165.904 363.625 166.454 363.8 167.19 364.246C168.919 365.332 170.462 366.146 172.36 367.031C173.741 368.044 174.632 369.235 175.818 369.888C182.686 373.673 189.626 377.33 196.539 381.034C202.7 384.336 208.858 387.642 215.253 390.97C215.488 390.994 215.959 391.03 215.959 391.03Z" fill="#D47D4D"/>
<path d="M283.472 358.987C282.928 359.034 282.723 359.019 282.209 358.621C278.549 351.697 277.125 351.235 271.39 354.644C270.751 355.024 269.812 354.902 268.741 355.019C268.289 355.041 268.109 355.059 267.673 355.064C267.25 355.026 267.081 354.999 267.066 354.67C271.33 351.753 275.439 349.139 279.687 346.909C282.032 349.512 285.155 354.017 286.288 353.563C291.847 351.332 296.876 347.781 302.508 344.452C295.833 339.798 294.499 349.188 288.101 347.04C290.392 344.745 292.13 343.003 295.003 340.124C291.772 340.505 289.856 340.73 288.117 340.67C294.167 336.559 300.04 332.734 305.907 329.26C304.594 331.402 303.289 333.193 301.615 335.029C299.395 336.068 297.543 337.061 295.691 338.053C295.969 338.712 296.247 339.37 296.525 340.028C301.032 339.033 305.539 338.037 310.432 337.035C314.185 335.664 317.55 334.301 321.022 333.048C321.128 333.158 321.331 333.388 321.331 333.388C308.824 341.9 296.317 350.413 283.472 358.987Z" fill="#BF6037"/>
<path d="M416.395 269.902C416.169 269.929 415.942 269.955 415.171 269.761C413.753 269.363 412.881 269.186 411.826 268.677C410.17 267.895 408.65 267.559 407.24 266.962C406.086 266.473 405.064 265.673 403.986 264.736C403.971 264.277 403.955 264.094 403.968 263.951C403.997 263.99 403.916 263.935 404.293 263.961C408.896 261.828 413.162 259.738 417.3 257.422C417.791 257.147 417.589 255.635 417.709 254.748C417.711 254.799 417.765 254.712 418.195 254.806C420.967 254.978 423.297 255.64 424.58 252.403C425.06 251.193 427.471 250.748 429.14 250.285C431.229 251.753 433.177 252.892 435.094 254.274C435.061 254.517 434.994 255.002 434.775 255.107C434.284 255.413 434.099 255.674 433.692 256.154C426.71 258.8 422.122 266.63 412.673 262.8C414.682 265.691 415.831 267.345 416.951 269.05C416.921 269.101 416.901 269.217 416.901 269.217C416.901 269.217 416.724 269.641 416.549 269.793C416.374 269.946 416.395 269.902 416.395 269.902Z" fill="#C8521B"/>
<path d="M412.009 269.01C412.881 269.186 413.753 269.363 414.832 269.807C408.389 274.785 401.74 279.496 394.638 284.186C394.185 284.165 393.95 283.935 394.121 283.65C395.131 282.364 395.97 281.363 396.809 280.362C396.304 280.146 395.799 279.93 395.294 279.714C395.56 278.167 395.825 276.619 396.485 275.064C401.276 275.56 405.776 276.342 408.408 271.012C409.838 270.346 410.924 269.678 412.009 269.01Z" fill="#BB633B"/>
<path d="M53.9056 306.779C52.8743 306.746 51.8507 306.341 50.4978 305.891C50.1685 305.846 50.1452 305.868 50.0389 305.646C49.6186 305.313 49.3047 305.203 48.9907 305.092C40.0344 299.635 31.078 294.177 21.9872 288.398C23.2221 288.244 24.7412 288.089 25.9311 288.643C28.8875 290.018 31.6938 291.715 35.5866 293.845C37.0387 298.246 43.2777 298.674 47.3045 301.917C49.3719 303.581 51.702 304.92 53.9056 306.779Z" fill="#B77D59"/>
<path d="M434.994 255.002C434.994 255.002 435.061 254.517 435.431 254.263C436.546 253.351 437.29 252.693 438.399 252.022C440.167 251.663 441.571 251.316 443.088 251.104C443.201 251.24 443.428 251.509 443.428 251.509C434.991 257.246 426.554 262.984 417.66 268.857C417.202 268.993 416.981 268.999 416.981 268.999C415.831 267.345 414.682 265.691 412.673 262.8C422.122 266.63 426.71 258.8 433.911 256.048C434.715 255.587 434.899 255.326 434.994 255.002Z" fill="#BB6340"/>
<path d="M89.0542 327.342C93.091 328.53 97.531 329.591 101.536 331.544C106.623 334.026 111.404 337.157 116.215 340.172C117.567 341.019 118.558 342.441 119.757 343.962C109.62 338.753 99.442 333.182 89.0542 327.342Z" fill="#B47B5B"/>
<path d="M337.085 323.089C332.057 326.463 327.029 329.837 321.666 333.299C321.331 333.388 321.128 333.158 321.044 332.68C319.85 331.05 318.741 329.899 316.415 327.485C319.496 327.255 321.703 327.095 323.91 326.923C325.526 326.798 328.309 327.112 328.567 326.449C330.205 322.247 333.702 323.097 336.896 322.886C336.959 322.954 337.085 323.089 337.085 323.089Z" fill="#BF6037"/>
<path d="M167.091 371.35C168.326 371.194 169.799 371.037 170.864 371.623C177.896 375.488 184.849 379.498 191.796 383.516C192.306 383.811 192.565 384.537 193.018 385.392C184.443 381.046 175.791 376.37 167.091 371.35Z" fill="#B77D59"/>
<path d="M150.009 357.999C151.674 359.616 153.312 361.262 155.017 362.837C155.916 363.667 156.932 364.372 157.938 365.476C151.877 362.565 145.773 359.311 139.496 355.649C139.546 354.831 139.769 354.422 139.993 354.013C143.112 355.021 146.231 356.029 149.695 356.992C150.04 356.947 150.058 356.97 150.036 357.227C150.012 357.655 150.01 357.827 150.009 357.999Z" fill="#B87A56"/>
<path d="M18.0464 278.981C17.9961 279.874 17.9457 280.767 17.8242 282.106C14.077 274.744 10.401 266.936 6.77899 258.649C6.83311 258.17 7.03528 257.977 7.31462 258.19C8.10585 259.596 8.54653 260.825 9.14167 261.975C12.0805 267.651 15.0601 273.307 18.0215 278.979C18.0176 278.988 18.0464 278.981 18.0464 278.981Z" fill="#B47B5B"/>
<path d="M139.775 353.742C139.769 354.422 139.546 354.831 139.208 355.444C132.764 352.048 126.436 348.446 119.946 344.555C121.746 344.888 123.819 345.282 125.644 346.18C130.34 348.491 134.927 351.025 139.775 353.742Z" fill="#B47B5B"/>
<path d="M390.212 287.746C388.63 288.687 387.269 289.395 385.484 290.082C385.062 290.063 384.859 289.852 384.952 289.52C388.014 287.437 390.982 285.686 393.95 283.935C393.95 283.935 394.185 284.165 394.306 284.279C393.094 285.432 391.763 286.471 390.212 287.746Z" fill="#BB633B"/>
<path d="M448.003 247.916C448.003 247.916 447.642 248.089 447.1 248.086C445.701 248.383 444.844 248.683 443.992 248.587C443.676 245.033 445.684 244.828 448.008 245.389C448.006 246.472 448.005 247.194 448.003 247.916Z" fill="#C35D32"/>
<path d="M345.315 317.148C345.26 317.452 345.124 317.715 344.826 318.144C343.723 318.876 342.702 319.4 341.069 320.073C339.941 320.451 339.426 320.682 338.999 320.574C341.164 319.207 343.239 318.177 345.315 317.148Z" fill="#BD5E37"/>
<path d="M448.204 248.083C448.005 247.194 448.006 246.472 448.254 245.375C448.502 245 448.993 244.973 448.993 244.973C449.765 244.982 450.537 244.99 451.694 245.012C450.855 246.101 449.629 247.175 448.204 248.083Z" fill="#BB6340"/>
<path d="M443.988 248.983C444.844 248.683 445.701 248.383 446.9 248.095C446.181 249.165 445.118 250.222 443.742 251.394C443.428 251.509 443.201 251.24 443.207 250.853C443.471 249.974 443.729 249.482 443.992 248.994C443.998 248.998 443.988 248.983 443.988 248.983Z" fill="#BB6340"/>
<path d="M338.911 320.912C339.426 320.682 339.941 320.451 340.718 320.112C339.911 321 338.842 321.997 337.429 323.042C337.085 323.089 336.959 322.954 336.999 322.599C337.663 321.8 338.287 321.356 338.911 320.912Z" fill="#BF6037"/>
<path d="M455.377 243.038C455.833 242.395 456.625 241.723 457.787 241.084C457.342 241.748 456.527 242.379 455.377 243.038Z" fill="#BB6340"/>
<path d="M461.401 239.095C461.975 238.463 462.898 237.798 464.194 237.182C463.628 237.841 462.689 238.452 461.401 239.095Z" fill="#BB6340"/>
<path d="M458.415 241.154C458.863 240.473 459.649 239.775 460.775 239.078C460.328 239.765 459.541 240.45 458.415 241.154Z" fill="#BB6340"/>
<path d="M453.295 244.886C453.467 244.246 453.95 243.66 454.749 243.058C454.579 243.674 454.093 244.307 453.295 244.886Z" fill="#BB6340"/>
<path d="M280.318 361.078C280.453 360.737 280.873 360.383 281.582 359.994C281.448 360.329 281.026 360.697 280.318 361.078Z" fill="#BF6037"/>
<path d="M278.47 362.276C278.592 361.9 279.013 361.485 279.76 361.065C279.646 361.452 279.207 361.844 278.47 362.276Z" fill="#BF6037"/>
<path d="M277.203 363.196C277.259 362.861 277.546 362.531 278.067 362.215C278.012 362.553 277.724 362.878 277.203 363.196Z" fill="#BF6037"/>
<path d="M274.364 365.068C274.446 365.012 274.445 365.011 274.442 364.989C274.439 364.968 274.282 365.123 274.364 365.068Z" fill="#BF6037"/>
<path d="M275.164 364.615C275.111 364.418 275.301 364.251 275.705 364.052C275.823 364.279 275.653 364.487 275.164 364.615Z" fill="#BF6037"/>
<path d="M416.951 269.05C416.981 268.999 417.202 268.993 417.305 268.955C417.463 269.147 417.376 269.293 417.025 269.287C416.901 269.217 416.921 269.101 416.951 269.05Z" fill="#BB633B"/>
<path d="M193.442 385.987C193.47 385.904 193.531 385.943 193.564 385.935C193.597 385.926 193.553 386.155 193.553 386.155C193.553 386.155 193.415 386.07 193.442 385.987Z" fill="#B77D59"/>
<path d="M166.605 370.255C166.653 370.279 166.748 370.425 166.918 370.678C166.835 370.684 166.721 370.548 166.605 370.255Z" fill="#B77D59"/>
<path d="M49.1185 305.306C49.3047 305.203 49.6186 305.313 50.0347 305.657C49.7773 305.917 49.4804 305.793 49.1185 305.306Z" fill="#F9E9DD"/>
<path d="M87.0482 326.289C87.2858 326.158 87.5177 326.336 87.7463 326.821C87.5095 326.952 87.2761 326.776 87.0482 326.289Z" fill="#F9E9DD"/>
<path d="M416.459 270.016C416.395 269.902 416.374 269.946 416.359 269.923C416.345 269.9 416.424 270.267 416.424 270.267C416.424 270.267 416.524 270.129 416.459 270.016Z" fill="#BB633B"/>
<path d="M6.05334 257.258C6.05605 256.995 6.53151 256.996 6.77691 257.242C7.0223 257.487 7.03527 257.977 7.03527 257.977C7.03527 257.977 6.8331 258.17 6.73339 258.27C6.43933 258.087 6.24498 257.804 6.05334 257.258Z" fill="#B47B5B"/>
<path d="M454.01 144.967C456.098 145.616 458.186 146.266 460.639 146.912C461.005 146.908 461.309 147.13 461.641 147.333C462.3 147.602 462.627 147.668 462.953 147.735C463.376 147.912 463.799 148.09 464.566 148.307C467.89 150.549 473.256 150.222 473.142 155.709C473.04 160.664 468.153 160.908 465.275 163.035C461.147 166.086 456.748 168.772 451.904 171.874C450.562 172.373 449.781 172.613 449.032 172.516C454.35 168.365 459.715 164.653 464.879 160.681C466.793 159.209 469.477 157.156 469.52 155.315C469.557 153.713 466.504 151.843 464.551 150.468C463.406 149.661 461.61 149.831 460.342 149.133C458.135 147.919 456.111 146.373 454.01 144.967Z" fill="#B77050"/>
<path d="M238.467 82.4498C238.522 82.4167 238.411 82.4829 238.467 82.4498Z" fill="#FCFAF7"/>
<path d="M312.836 91.6514C312.651 91.782 312.326 91.7139 311.894 91.4138C312.134 91.1252 312.437 91.2154 312.836 91.6514Z" fill="#FCFAF7"/>
<path d="M462.791 147.548C462.627 147.668 462.3 147.602 461.828 147.321C462.031 147.072 462.346 147.157 462.791 147.548Z" fill="#FCFAF7"/>
<path d="M376.819 115.527C376.954 115.695 376.492 115.709 376.492 115.709C376.492 115.709 376.091 115.481 375.989 115.274C376.188 115.066 376.454 115.164 376.819 115.527Z" fill="#FCFAF7"/>
<path d="M449 172.852C449.781 172.613 450.562 172.373 451.653 172.104C451.97 175.649 452.154 179.233 451.953 182.795C451.302 194.3 452.81 205.494 456.701 216.919C457.024 217.579 457.044 217.747 457.063 217.916C457.596 219.444 457.969 221.053 458.696 222.482C459.945 224.939 459.654 226.824 456.716 228.584C456.265 228.964 456.028 229.345 456.028 229.345C451.396 232.262 446.764 235.179 441.954 238.385C441.776 238.675 441.752 238.683 441.412 238.758C437.296 241.466 433.52 244.098 429.773 246.814C429.803 246.896 429.809 246.721 429.539 246.77C429.074 247.097 428.878 247.376 428.635 247.627C428.588 247.6 428.481 247.613 428.165 247.69C424.487 250.082 421.126 252.397 417.765 254.712C417.765 254.712 417.711 254.799 417.374 254.819C412.663 257.871 408.29 260.903 403.916 263.935C403.916 263.935 403.997 263.99 403.717 263.989C403.303 264.091 403.169 264.194 402.769 264.353C401.961 264.867 401.42 265.325 400.542 265.874C395.216 269.328 390.225 272.691 384.909 276.186C379.637 279.763 374.69 283.208 369.719 286.666C369.695 286.679 369.644 286.658 369.311 286.732C366.159 288.797 363.34 290.787 360.366 292.797C360.21 292.817 360.001 293.051 359.669 293.086C357.533 294.402 355.73 295.682 353.596 297.046C350.5 299.067 347.733 301.004 344.633 303.021C341.527 305.061 338.754 307.022 335.991 308.991C336 309 335.984 308.981 335.643 309.022C333.139 310.647 330.975 312.231 328.903 313.824C328.994 313.833 328.82 313.775 328.54 313.818C327.828 314.197 327.394 314.533 326.626 314.967C321.511 318.364 316.731 321.663 311.971 324.983C311.991 325.004 311.975 324.949 311.707 324.981C311.211 325.274 310.983 325.535 310.821 325.778C310.887 325.761 310.756 325.723 310.455 325.793C309.365 326.496 308.576 327.13 307.854 327.818C307.921 327.873 307.839 327.72 307.546 327.765C306.808 328.181 306.364 328.552 305.925 328.933C305.93 328.942 305.913 328.909 305.913 328.909C300.04 332.734 294.167 336.559 288.135 340.681C287.975 340.978 287.966 340.943 287.622 340.991C284.733 342.859 282.187 344.68 279.619 346.511C279.597 346.521 279.549 346.526 279.549 346.526C275.439 349.139 271.33 351.753 266.818 354.759C266.295 355.278 266.174 355.406 266.052 355.533C259.681 359.655 253.309 363.778 246.78 368.208C246.623 368.516 246.602 368.557 246.277 368.617C244.55 369.695 243.147 370.713 241.786 371.778C241.829 371.825 241.83 371.698 241.532 371.737C240.787 372.155 240.34 372.534 239.943 372.945C239.993 372.977 239.92 372.884 239.575 372.937C234.074 376.577 228.917 380.164 223.786 383.803C223.812 383.855 223.848 383.745 223.532 383.798C222.922 384.143 222.628 384.437 222.228 384.706C222.122 384.682 221.965 384.832 221.602 384.907C219.826 385.343 218.414 385.703 216.834 385.818C216.11 385.388 215.552 385.206 214.925 384.813C214.856 384.604 214.748 384.176 215.04 384.025C215.412 382.758 215.885 381.477 215.498 380.557C214.179 377.42 212.083 374.55 211.13 371.327C206.361 355.192 203.049 338.858 206.417 321.987C208.647 322.23 210.556 322.39 212.787 322.427C216.945 319.838 220.782 317.372 224.797 314.792C224.974 314.68 225.229 314.346 225.555 314.298C226.902 313.507 227.922 312.762 229.221 311.911C229.987 311.466 230.476 311.128 231.307 310.793C234.427 308.882 237.204 306.966 240.226 304.987C240.72 304.705 240.97 304.485 241.548 304.208C243.072 303.239 244.269 302.328 245.753 301.33C246.708 300.818 247.377 300.392 248.394 299.944C254.195 296.319 259.649 292.716 265.435 289.018C280.319 279.712 294.889 270.527 309.416 261.276C314.039 258.332 318.551 255.212 323.472 252.131C331.02 247.475 338.21 242.861 345.569 238.21C345.739 238.173 346.014 237.961 346.272 237.958C346.753 237.712 346.975 237.468 347.086 237.179C346.974 237.133 347.192 237.243 347.486 237.209C348.182 236.784 348.584 236.394 348.994 236.003C349.001 236.004 349.004 235.988 349.347 235.958C351.724 234.595 353.758 233.263 355.855 231.945C355.918 231.959 355.963 231.838 356.307 231.821C360.618 229.187 364.584 226.569 368.746 223.823C368.942 223.696 369.203 223.308 369.528 223.252C370.705 222.559 371.556 221.921 372.579 221.236C372.752 221.188 373.017 220.946 373.368 220.929C378.553 217.701 383.387 214.489 388.1 211.18C387.979 211.083 388.227 211.265 388.576 211.23C398.291 205.135 407.656 199.075 417.011 193.007C417 192.999 417.013 193.022 417.369 192.982C427.933 186.383 438.142 179.824 448.536 173.197C448.722 173.131 449 172.852 449 172.852ZM452.114 218.32C452.294 221.442 452.474 224.563 452.668 227.916C457.482 225.466 457.214 221.925 452.114 218.32Z" fill="#E3E2E3"/>
<path d="M457.407 218C457.044 217.747 457.024 217.579 456.977 217.157C459.924 213.366 460.792 216.287 461.851 218.87C460.461 218.845 459.105 218.465 457.407 218Z" fill="#FAE8D5"/>
<path d="M462.855 219.555C462.997 219.747 462.505 219.804 462.505 219.804C462.505 219.804 462.048 219.613 461.928 219.398C462.141 219.082 462.444 219.142 462.855 219.555Z" fill="#FAE8D5"/>
<path d="M449.055 244.626C448.993 244.973 448.502 245 448.256 245.014C445.684 244.828 443.676 245.033 443.992 248.587C443.988 248.983 443.998 248.998 443.64 249.03C441.524 249.712 439.764 250.361 437.872 250.705C437.491 248.605 437.243 246.811 437.346 244.969C439.049 242.842 440.4 240.763 441.752 238.683C441.752 238.683 441.776 238.675 441.766 238.662C444.866 237.768 447.975 236.888 451.493 235.891C454.433 239.183 452.6 241.899 449.055 244.626Z" fill="#CB5219"/>
<path d="M456.035 229.711C456.028 229.345 456.265 228.964 456.475 228.887C458.823 229.866 460.96 230.922 463.098 231.978C459.175 234.674 456.638 234.501 456.035 229.711Z" fill="#C45212"/>
<path d="M466.052 229.249C467.096 229.968 467.796 230.806 468.496 231.643C467.669 232.003 466.843 232.362 466.016 232.721C465.913 231.603 465.811 230.485 466.052 229.249Z" fill="#C45212"/>
<path d="M248.047 299.966C247.377 300.392 246.708 300.818 245.357 301.21C243.524 302.206 242.372 303.236 241.22 304.265C240.97 304.485 240.72 304.705 239.847 304.949C236.471 306.912 233.718 308.851 230.964 310.789C230.476 311.128 229.987 311.466 228.867 311.893C227.232 312.769 226.231 313.557 225.229 314.346C225.229 314.346 224.974 314.68 224.437 314.789C219.941 316.328 215.982 317.76 211.761 318.956C209.951 317.285 208.608 315.487 206.82 314.476C199.089 310.104 191.207 305.998 183.421 301.722C178.661 299.107 174.075 296.16 169.234 293.711C160.297 289.189 151.143 285.093 142.238 280.513C127.265 272.812 112.427 264.849 97.5116 257.035C79.0984 247.389 60.7039 237.705 42.222 228.191C33.9281 223.922 25.4414 220.027 17.0184 215.586C14.979 214.141 12.9636 213.072 10.9534 211.626C10.9584 210.491 10.9581 209.735 10.9578 208.979C10.9578 208.979 11.2479 208.769 11.8343 208.836C13.9298 207.908 15.4389 206.912 16.9479 205.916C16.9479 205.916 16.995 205.994 17.3642 206.012C19.3037 205.676 21.0338 205.632 22.4177 204.917C30.143 200.927 37.9463 197.041 45.3672 192.534C47.9762 190.95 52.5695 191.6 52.9465 186.922C52.9465 186.922 52.9963 186.996 53.307 186.987C54.7177 186.261 55.8178 185.546 56.9179 184.83C56.9179 184.83 56.9363 184.937 57.2947 184.958C59.5028 184.384 61.4575 184 63.1811 183.149C67.198 181.165 71.0914 178.933 75.0566 176.843C86.9728 170.561 98.9177 164.334 110.788 157.967C111.779 157.436 112.297 156.023 113.035 155.02C113.498 154.72 113.962 154.421 114.922 154.357C116.595 153.697 117.771 152.801 118.947 151.905C118.947 151.905 119.16 151.683 119.729 151.764C121.281 151.77 122.411 151.985 123.223 151.573C130.552 147.858 137.835 144.055 145.11 140.235C154.043 135.545 163.055 130.993 171.83 126.022C175.792 123.777 179.264 120.665 182.958 117.946C183.275 117.705 183.593 117.464 184.211 117.169C187.306 116.013 190.102 114.911 193.026 113.488C198.011 111.007 202.95 109.013 207.689 106.623C210.267 105.322 212.506 103.347 214.941 101.334C215.459 100.688 215.934 100.385 216.693 100.039C218.306 99.6019 219.635 99.2067 221.096 98.5276C225.486 96.545 229.874 95.1082 233.972 93.0852C239.867 90.1758 245.563 86.862 251.308 83.6559C251.981 83.2804 252.424 82.4943 253.117 81.5871C254.397 81.0551 255.805 81.1888 256.633 80.5596C265.607 73.7375 273.616 79.752 281.758 82.4814C289.5 85.0766 297.1 88.1071 304.704 91.0956C312.523 94.1688 320.263 97.4441 328.057 100.583C330.178 101.438 332.377 102.098 334.527 102.887C342.667 105.873 350.78 108.933 358.943 111.854C366.511 114.563 374.14 117.101 381.723 119.768C390.525 122.864 399.376 125.841 408.079 129.198C416.797 132.561 425.255 136.612 434.025 139.823C440.005 142.012 446.324 143.275 452.925 144.86C453.359 144.767 453.714 144.769 453.862 144.868C456.111 146.373 458.135 147.919 460.342 149.133C461.61 149.831 463.406 149.661 464.551 150.468C466.504 151.843 469.557 153.713 469.52 155.315C469.477 157.156 466.793 159.209 464.879 160.681C459.715 164.653 454.35 168.365 449.032 172.516C449 172.852 448.722 173.131 448.132 173.12C446.564 173.191 445.39 172.949 444.641 173.406C438.795 176.973 432.901 180.489 427.286 184.401C423.633 186.945 420.422 190.126 417.013 193.022C417.013 193.022 417 192.999 416.623 192.989C406.93 198.91 397.613 204.841 388.306 210.787C388.215 210.845 388.25 211.101 388.227 211.265C388.227 211.265 387.979 211.083 387.717 211.091C381.896 213.286 376.214 215.294 373.017 220.946C373.017 220.946 372.752 221.188 372.182 221.152C370.808 221.847 370.006 222.578 369.203 223.308C369.203 223.308 368.942 223.696 368.396 223.816C363.053 225.314 358.442 226.973 355.963 231.838C355.963 231.838 355.918 231.959 355.466 231.944C352.336 232.283 349.016 231.686 349.004 235.988C349.004 235.988 349.001 236.004 348.685 236.011C347.977 236.426 347.584 236.835 347.192 237.243C347.192 237.243 346.974 237.133 346.828 237.178C346.459 237.469 346.237 237.715 346.014 237.961C346.014 237.961 345.739 238.173 345.176 238.135C340.064 240.598 335.387 242.898 331.01 245.671C328.152 247.483 325.731 249.982 323.114 252.173C318.551 255.212 314.039 258.332 309.416 261.276C294.889 270.527 280.319 279.712 265.061 288.978C260.78 291.007 257.097 292.815 253.668 295.017C251.591 296.351 249.907 298.296 248.047 299.966Z" fill="#CA5221"/>
<path d="M10.9482 212.004C12.9636 213.072 14.979 214.141 16.6794 215.568C13.8414 214.764 11.0678 212.965 10.9652 218.356C10.3027 219.126 9.68063 219.581 9.03743 219.667C7.60409 217.752 6.19188 216.206 4.77966 214.66C5.32961 213.8 5.87955 212.941 7.13078 212.047C8.87078 212.011 9.90951 212.007 10.9482 212.004Z" fill="#CE743C"/>
<path d="M4.57249 214.753C6.19188 216.206 7.60409 217.752 8.90448 219.922C8.22292 221.039 7.65317 221.532 7.08342 222.025C2.60632 222.125 4.43128 218.653 3.91199 216.036C3.9272 215.262 4.08971 215.016 4.57249 214.753Z" fill="#CC844C"/>
<path d="M16.605 205.937C15.4389 206.912 13.9298 207.908 12.0131 208.826C13.1576 207.818 14.7099 206.888 16.605 205.937Z" fill="#B77050"/>
<path d="M28 195C27.6977 195.51 27.3955 196.019 27.0933 196.529C26.8837 196.348 26.6742 196.166 26.4647 195.985C26.7871 195.68 27.1095 195.375 27.716 195.035C28.0001 195 28 195 28 195Z" fill="#FEFEFE"/>
<path d="M26.4935 198.493C26.513 198.492 26.474 198.493 26.4935 198.493Z" fill="#B77050"/>
<path d="M7.0661 222.491C7.65318 221.532 8.22293 221.039 8.92562 220.292C9.68064 219.581 10.3027 219.126 11.2667 218.488C13.0508 219.196 14.493 220.086 15.9312 221.178C15.9272 221.38 16.0092 221.776 15.6271 221.833C14.3321 221.704 13.4193 221.518 12.1753 221.264C10.9099 233.761 12.8051 245.529 16.917 257.405C20.3089 264.751 23.695 271.712 27.1868 278.844C27.2927 279.016 27.6637 279.176 27.7708 279.509C31.9108 282.238 35.9439 284.634 39.9882 287.015C39.9996 286.999 39.9682 287.023 40.0439 287.252C40.1195 287.481 40.5206 287.75 40.5206 287.75C40.5206 287.75 41.0004 287.697 41.2548 287.885C42.2717 288.421 43.0341 288.769 43.9922 289.402C47.7239 291.532 51.2602 293.377 54.8898 295.206C54.9832 295.191 54.7968 295.199 54.9108 295.434C55.3471 295.759 55.6695 295.849 56.2134 296.126C56.9503 296.545 57.4658 296.778 58.0933 297.195C58.2053 297.38 58.5703 297.611 58.5703 297.611C58.5703 297.611 59.002 297.605 59.2096 297.759C59.5844 297.955 59.7515 297.997 60.1081 298.328C64.4853 300.828 68.6731 303.04 73.0892 305.503C78.0276 308.272 82.7377 310.791 87.616 313.559C88.1591 313.926 88.5339 314.043 88.9258 314.102C88.9428 314.044 88.8541 314.126 88.9627 314.357C89.3876 314.674 89.7039 314.76 90.0387 314.912C90.0574 314.978 90.1847 314.928 90.3567 315.212C95.0614 318.648 99.594 321.799 103.875 325.108C103.744 326.184 103.864 327.101 103.985 328.019C95.4085 323.613 86.7542 319.351 78.2742 314.766C66.7209 308.519 55.3069 302.015 43.821 295.644C37.1034 291.917 30.2675 288.391 23.6885 284.436C21.6856 283.232 20.3614 280.899 18.3864 279.032C18.0464 278.981 18.0175 278.988 18.1692 278.658C17.426 275.968 16.5061 273.618 15.641 271.248C13.4224 265.169 11.2281 259.081 9.02406 252.997C8.67923 250.692 8.14583 248.396 8.02408 246.079C7.61926 238.376 7.36238 230.665 7.0661 222.491Z" fill="#C05B2C"/>
<path d="M8.6859 252.998C11.2281 259.081 13.4224 265.169 15.641 271.248C16.5061 273.618 17.426 275.968 18.1731 278.648C15.0601 273.307 12.0805 267.651 9.14167 261.975C8.54652 260.825 8.10585 259.596 7.31462 258.19C7.03528 257.977 7.0223 257.487 7.01464 257.242C7.00831 256.555 7.00965 256.113 7.18078 255.245C7.24079 254.544 7.131 254.267 7.02122 253.99C7.02122 253.99 7.00293 253.502 6.99936 253.258C7.44644 253.009 7.89709 253.004 8.6859 252.998Z" fill="#D57D4C"/>
<path d="M7.01492 254.245C7.13099 254.267 7.24077 254.544 7.189 254.914C7.02118 254.838 7.01491 254.668 7.01492 254.245Z" fill="#D77846"/>
<path d="M104.147 328.322C103.864 327.101 103.744 326.184 104.264 325.092C106.86 325.363 108.815 325.807 110.763 326.171C110.757 326.09 110.795 326.245 110.961 326.516C112.078 327.212 113.028 327.638 114.148 328.273C114.811 328.689 115.303 328.896 116.003 329.382C120.41 331.887 124.609 334.114 128.958 336.547C129.582 336.919 130.056 337.084 130.764 337.517C137.966 341.568 144.934 345.351 151.951 349.079C152 349.024 151.881 349.112 152.045 349.378C153.153 350.031 154.097 350.417 155.163 350.948C155.286 351.092 155.657 351.167 155.765 351.479C156.589 352.179 157.305 352.567 158.007 352.972C157.992 352.988 158.035 352.983 158.08 353.273C158.514 353.988 158.903 354.415 159.003 355.013C158.12 356.143 157.527 357.102 156.934 358.06C155.905 358.034 154.876 358.008 153.253 357.706C151.793 357.277 150.925 357.124 150.058 356.97C150.058 356.97 150.04 356.947 150.048 356.931C149.186 355.79 148.315 354.667 147.494 353.252C147.767 352.818 147.991 352.677 148.215 352.535C147.758 352.369 147.301 352.202 146.844 352.035C132.666 344.232 118.487 336.428 104.147 328.322ZM152.618 353.476C152.835 353.531 153.053 353.587 153.271 353.643C153.131 353.505 152.99 353.368 152.618 353.476ZM151.381 351.53C151.162 351.475 150.943 351.419 150.724 351.363C150.865 351.5 151.005 351.638 151.381 351.53Z" fill="#C15C2F"/>
<path d="M55.7903 308.088C55.3147 308.158 54.7495 307.9 54.0375 307.365C54.494 307.313 55.0974 307.536 55.7903 308.088Z" fill="#B77D59"/>
<path d="M146.893 352.277C147.301 352.202 147.758 352.369 148.215 352.535C147.991 352.677 147.767 352.818 147.287 352.981C147.032 353.002 146.942 352.518 146.893 352.277Z" fill="#C4511C"/>
<path d="M214.993 385.023C215.552 385.206 216.11 385.388 216.897 386.171C218.419 387.185 219.71 387.599 221.059 388.365C222.762 389.526 224.407 390.334 226.052 391.142C226.251 390.539 226.449 389.936 226.648 389.334C225.095 388.886 223.542 388.437 221.994 387.595C221.987 386.411 221.976 385.622 221.965 384.832C221.965 384.832 222.122 384.682 222.569 384.703C223.293 384.397 223.57 384.071 223.848 383.745C223.848 383.745 223.812 383.855 224.192 383.884C231.101 382.746 235.575 378.452 239.833 373.846C240.006 373.659 239.897 373.21 239.92 372.884C239.92 372.884 239.993 372.977 240.269 372.953C240.974 372.519 241.402 372.109 241.83 371.698C241.83 371.698 241.829 371.825 242.163 371.866C243.866 370.79 245.234 369.674 246.602 368.557C246.602 368.557 246.623 368.516 246.617 368.493C246.837 368.575 247.062 368.681 247.645 369.235C248.013 370.142 248.024 370.599 248.034 371.057C245.845 373.358 243.657 375.659 241.278 378.161C244.196 380.072 246.056 378.358 248.032 376.523C249.969 374.724 252.081 372.926 254.757 376.087C249.293 379.608 243.991 383.024 238.386 386.636C235.922 386.677 234.966 380.003 231.657 383.61C231.657 386.778 232.597 390.559 231.476 391.325C228.436 393.401 224.903 396.9 220.604 392.915C219.59 391.976 218.024 391.633 216.336 391.023C215.959 391.03 215.488 390.994 215.199 390.651C214.273 388.862 213.636 387.417 213.294 385.956C214.057 385.635 214.525 385.329 214.993 385.023Z" fill="#CA531C"/>
<path d="M266.032 355.862C266.174 355.406 266.295 355.278 266.664 355.062C267.081 355 267.25 355.026 267.788 355.218C268.443 355.26 268.728 355.136 269.012 355.013C269.812 354.902 270.751 355.024 271.39 354.644C277.125 351.235 278.549 351.697 281.901 358.594C279.433 358.871 276.965 358.793 274.496 358.715C274.491 358.301 274.485 357.887 274.479 357.474C268.781 357.645 265.618 364.464 259.671 363.983C259.419 363.56 259.167 363.137 258.915 362.714C261.281 360.54 263.647 358.365 266.032 355.862Z" fill="#CB5219"/>
<path d="M248.477 371.045C248.024 370.599 248.013 370.142 248.003 369.34C252.315 368.316 256.642 367.72 260.931 366.918C263.074 366.517 265.147 365.74 267.537 365.052C265.962 369.055 260.917 371.849 256.853 371.466C254.218 371.218 251.565 371.17 248.477 371.045Z" fill="#CF521B"/>
<path d="M212.999 385.971C213.636 387.417 214.273 388.862 214.964 390.627C208.858 387.642 202.7 384.336 196.539 381.034C189.626 377.33 182.686 373.674 175.818 369.888C174.631 369.235 173.741 368.044 172.356 366.686C171.667 365.187 171.337 364.103 171.006 362.693C171.001 361.933 170.996 361.499 171.329 361.012C172.12 360.922 172.573 360.885 173.143 360.981C173.26 361.114 173.607 361.193 173.754 361.442C174.26 361.8 174.62 361.908 175.229 362.252C178.643 364.365 181.807 366.242 185.043 368.456C185.875 369.016 186.632 369.239 187.303 369.616C187.217 369.77 187.438 369.494 187.405 369.868C189.725 371.335 192.078 372.429 194.386 373.488C194.341 373.453 194.453 373.428 194.45 373.799C195.34 374.414 196.231 374.659 197.073 374.932C197.023 374.961 197.084 374.863 197.106 375.226C199.48 376.675 201.832 377.762 204.117 378.873C204.05 378.896 204.148 378.793 204.111 379.189C205.65 383.433 209.271 382.909 212.406 383.505C212.427 383.542 212.502 383.5 212.413 383.819C212.55 384.749 212.774 385.36 212.999 385.971Z" fill="#C05B2C"/>
<path d="M170.992 361.064C170.996 361.499 171.001 361.933 170.64 362.691C169.185 363.335 168.094 363.654 167.003 363.974C166.454 363.8 165.904 363.625 165.136 362.89C164.26 361.899 163.603 361.469 162.946 361.039C162.946 361.039 162.478 361.037 162.045 360.751C160.759 360.302 159.906 360.139 159.054 359.976C158.461 359.494 157.869 359.012 157.105 358.295C157.527 357.102 158.12 356.143 159.348 355.057C163.652 356.974 167.322 359.019 170.992 361.064Z" fill="#C4511C"/>
<path d="M167.19 364.247C168.094 363.654 169.185 363.335 170.641 363.017C171.337 364.103 171.667 365.187 172.002 366.615C170.462 366.146 168.919 365.332 167.19 364.247Z" fill="#C35D32"/>
<path d="M163.012 361.352C163.603 361.469 164.26 361.899 164.965 362.649C164.368 362.535 163.723 362.1 163.012 361.352Z" fill="#C35D32"/>
<path d="M159.248 360.242C159.906 360.139 160.759 360.302 161.812 360.728C161.156 360.83 160.298 360.669 159.248 360.242Z" fill="#C35D32"/>
<path d="M150.036 357.227C150.925 357.124 151.793 357.277 152.867 357.696C152.308 357.974 151.54 357.986 150.391 357.999C150.01 357.827 150.012 357.655 150.036 357.227Z" fill="#D57D4C"/>
<path d="M287.958 340.967C289.856 340.73 291.772 340.505 295.003 340.124C292.13 343.003 290.392 344.745 288.101 347.04C294.499 349.188 295.833 339.798 302.508 344.452C296.876 347.781 291.847 351.332 286.288 353.563C285.155 354.017 282.032 349.512 279.687 346.909C279.549 346.526 279.597 346.521 279.995 346.641C283.916 346.122 287.196 345.167 287.966 340.943C287.966 340.943 287.975 340.978 287.958 340.967Z" fill="#CB5219"/>
<path d="M355.5 297C358.427 297.414 385.5 290 353 312.5C348.686 313.834 303.532 344.033 299.025 345.028C293 351 277.809 354.446 291.5 340.5C302.842 328.946 353.28 298.039 355.5 297Z" fill="#CB5219"/>
<path d="M268.741 355.019C268.728 355.136 268.443 355.26 268.044 355.229C268.109 355.059 268.289 355.041 268.741 355.019Z" fill="#BD5D31"/>
<path d="M283.462 356.444C283.522 356.408 283.403 356.481 283.462 356.444Z" fill="#BD5D31"/>
<path d="M400.878 265.783C401.42 265.325 401.961 264.867 402.886 264.519C403.476 264.817 403.714 264.944 403.984 265.012C405.064 265.673 406.086 266.473 407.24 266.962C408.65 267.559 410.17 267.895 411.826 268.677C410.924 269.678 409.838 270.346 407.959 271.009C405.09 270.973 403.013 270.941 400.95 270.486C400.934 268.636 400.906 267.209 400.878 265.783Z" fill="#C7532A"/>
<path d="M438.034 252.035C437.29 252.693 436.546 253.351 435.464 254.02C433.177 252.892 431.229 251.753 429.116 249.884C428.795 248.64 428.638 248.126 428.481 247.613C428.481 247.613 428.588 247.6 428.926 247.634C429.446 247.353 429.627 247.037 429.809 246.721C429.809 246.721 429.803 246.896 430.138 246.9C430.969 246.934 431.465 246.963 432.009 247.341C434.039 249.126 436.02 250.564 438.008 252.008C438.015 252.016 438.034 252.035 438.034 252.035Z" fill="#C35D32"/>
<path d="M404.293 263.961C408.29 260.903 412.663 257.871 417.372 254.768C417.589 255.635 417.791 257.147 417.3 257.422C413.162 259.738 408.896 261.828 404.293 263.961Z" fill="#BA5F38"/>
<path d="M428.165 247.69C428.638 248.126 428.795 248.64 428.977 249.554C427.471 250.748 425.06 251.193 424.58 252.403C423.297 255.64 420.967 254.978 418.195 254.806C421.126 252.397 424.487 250.082 428.165 247.69Z" fill="#BA5F38"/>
<path d="M403.986 264.736C403.714 264.944 403.476 264.817 403.152 264.463C403.169 264.194 403.303 264.091 403.688 263.95C403.955 264.094 403.971 264.277 403.986 264.736Z" fill="#BA5F38"/>
<path d="M434.775 255.107C434.899 255.326 434.715 255.587 434.223 255.892C434.099 255.674 434.284 255.413 434.775 255.107Z" fill="#C35D32"/>
<path d="M360.001 293.051C360.001 293.051 360.21 292.817 360.756 292.86C362.536 292.595 363.77 292.287 365.136 292.295C366.18 294.407 367.091 296.204 368.135 298.311C368.557 299.469 368.846 300.317 369.135 301.165C369.135 301.165 369.037 301.086 368.841 301.142C368.428 301.456 368.211 301.715 367.993 301.975C367.993 301.975 367.774 302.202 367.21 302.132C366.1 302.049 365.553 302.035 364.842 301.783C363.785 301.7 362.892 301.854 361.977 301.708C361.638 300.935 361.321 300.461 360.966 299.644C359.917 298.505 358.906 297.71 358.104 296.653C358.876 295.278 359.439 294.165 360.001 293.051Z" fill="#C75319"/>
<path d="M369.474 301.096C368.846 300.317 368.557 299.469 368.494 298.275C374.1 295.236 379.48 292.544 384.859 289.852C384.859 289.852 385.062 290.063 385.164 290.168C380.115 293.858 374.964 297.443 369.474 301.096Z" fill="#BB633B"/>
<path d="M361.999 302.008C362.892 301.854 363.785 301.7 364.838 302.095C364.987 303.058 364.977 303.474 364.967 303.889C364.967 303.889 364.959 303.979 364.619 304.012C363.881 304.436 363.482 304.827 363.084 305.219C359.586 307.717 356.089 310.214 352.261 312.782C353.156 311.09 354.381 309.329 356.128 307.151C358.435 305.155 360.222 303.577 362.004 301.999C362 301.999 361.999 302.008 361.999 302.008Z" fill="#BD5E37"/>
<path d="M348.455 315.146C349.118 314.444 350.1 313.696 351.452 312.931C350.806 313.643 349.79 314.372 348.455 315.146Z" fill="#BD5E37"/>
<path d="M365.28 303.849C364.977 303.474 364.987 303.059 365.002 302.332C365.553 302.035 366.1 302.049 367.053 302.136C366.837 302.742 366.215 303.276 365.28 303.849Z" fill="#BB633B"/>
<path d="M346.263 316.739C346.496 316.221 347.012 315.66 347.849 315.124C347.629 315.664 347.088 316.181 346.263 316.739Z" fill="#BD5E37"/>
<path d="M363.368 305.162C363.482 304.827 363.881 304.436 364.575 304.002C364.465 304.341 364.059 304.723 363.368 305.162Z" fill="#BB633B"/>
<path d="M368.265 301.962C368.211 301.715 368.428 301.456 368.903 301.152C368.953 301.387 368.745 301.668 368.265 301.962Z" fill="#BB633B"/>
<path d="M348.994 318.992C349.091 318.955 349.194 318.925 349.156 318.953C349.015 319.011 349 319 348.994 318.992Z" fill="#FEFEFD"/>
<path d="M384.952 289.52C379.48 292.544 374.1 295.236 368.362 297.964C367.091 296.204 366.18 294.407 365.439 292.143C366.954 290.002 368.299 288.33 369.644 286.658C369.644 286.658 369.695 286.679 370.137 286.779C372.467 287.178 374.356 287.479 376.683 287.849C375.856 281.932 381.344 282.414 384.009 280.387C384.164 282.077 384.316 283.375 384.586 285.673C386.688 283.696 387.923 282.534 389.159 281.372C388.979 280.984 388.8 280.596 388.62 280.208C387.078 280.14 385.536 280.073 384.033 279.682C384.749 278.286 385.425 277.213 386.425 276.102C388.823 275.029 390.897 273.993 393.033 273.309C394.093 274.132 395.092 274.602 396.091 275.072C395.825 276.619 395.56 278.167 395.294 279.714C395.799 279.93 396.304 280.146 396.809 280.362C395.97 281.363 395.131 282.364 394.121 283.65C390.982 285.686 388.014 287.437 384.952 289.52Z" fill="#CA521D"/>
<path d="M396.485 275.064C395.092 274.602 394.093 274.132 393.268 273.022C395.94 271.891 398.439 271.401 400.937 270.91C403.013 270.941 405.09 270.973 407.614 271.007C405.776 276.342 401.276 275.56 396.485 275.064Z" fill="#CE5114"/>
<path d="M438.005 251.01C439.764 250.361 441.524 249.712 443.635 249.026C443.729 249.482 443.471 249.974 443.095 250.718C441.571 251.316 440.167 251.662 438.399 252.022C438.034 252.035 438.015 252.016 438.009 251.761C438.002 251.506 438.005 251.01 438.005 251.01Z" fill="#C35D32"/>
<path d="M137.737 134.121C138.579 134.781 139.051 135.375 139.523 135.97C137.958 136.371 136.394 136.773 134.829 137.174C134.631 136.668 134.433 136.163 134.235 135.657C135.279 135.124 136.322 134.59 137.737 134.121Z" fill="#FEFEFE"/>
<path d="M118.611 151.918C117.771 152.801 116.595 153.697 115.207 154.337C116.089 153.365 117.182 152.649 118.611 151.918Z" fill="#B77050"/>
<path d="M104.001 155.001C103.459 155.611 102.915 156.219 102.371 156.827C102.075 156.546 101.778 156.265 101.482 155.984C102.092 155.659 102.703 155.335 103.655 155.004C103.998 154.998 104.001 155.001 104.001 155.001Z" fill="#FEFEFE"/>
<path d="M178.469 115.451C178.524 115.418 178.414 115.484 178.469 115.451Z" fill="#FEFEFE"/>
<path d="M184.97 368.119C181.807 366.242 178.643 364.365 175.078 362.006C174.319 361.414 173.963 361.304 173.607 361.193C173.607 361.193 173.26 361.114 173.079 360.643C167.944 357.776 162.99 355.38 158.035 352.983C158.035 352.983 157.992 352.988 157.962 352.624C157.173 351.896 156.415 351.531 155.657 351.167C155.657 351.167 155.286 351.092 155.095 350.611C153.896 349.791 152.888 349.451 151.881 349.112C151.881 349.112 152 349.024 151.946 348.719C146.59 341.213 138.588 339.179 130.53 337.249C130.056 337.084 129.582 336.919 128.982 336.169C125.518 331.377 121.212 329.12 115.795 329.103C115.303 328.896 114.811 328.689 114.024 327.957C112.751 327.036 111.773 326.64 110.795 326.245C110.795 326.245 110.757 326.09 110.798 325.794C104.632 320.65 98.6285 315.405 90.1847 314.928C90.1847 314.928 90.0574 314.977 89.9115 314.701C89.5127 314.169 89.2088 314.069 88.8541 314.126C88.8541 314.126 88.9428 314.044 88.7849 313.82C88.2339 313.5 87.8409 313.404 87.4478 313.309C82.7377 310.791 78.0277 308.272 73.0849 305.143C69.9562 299.549 64.9741 298.721 59.9186 298.04C59.7515 297.997 59.5844 297.955 59.0931 297.583C58.5436 297.051 58.2811 296.97 57.9813 297.01C57.4658 296.778 56.9503 296.545 56.0863 295.904C55.4241 295.396 55.1105 295.297 54.7968 295.199C54.7968 295.199 54.9832 295.191 54.9152 294.821C52.8389 289.202 48.0084 289.8 43.7966 289.117C43.0342 288.769 42.2717 288.421 41.1428 287.695C40.5539 287.091 40.2845 286.992 39.9682 287.023C39.9682 287.023 39.9996 286.999 39.9726 286.655C35.8516 283.932 31.7577 281.554 27.6637 279.176C27.6637 279.176 27.2927 279.016 27.1845 278.456C25.0822 273.143 23.2134 268.333 21.0412 263.665C19.9491 261.317 18.3055 259.227 16.9113 257.02C12.8051 245.529 10.9099 233.761 12.1754 221.264C13.4193 221.518 14.3321 221.704 15.8251 222.122C26.2052 227.343 36.0051 232.332 45.8858 237.262C45.9665 237.203 45.7771 237.268 45.9284 237.542C46.6713 237.979 47.263 238.143 47.8623 238.249C47.87 238.191 47.7721 238.255 47.9038 238.514C48.7064 239.132 49.3773 239.49 50.2812 240.1C53.0512 241.559 55.5881 242.766 58.3455 244.224C64.6158 247.438 70.6656 250.402 76.8391 253.355C76.9627 253.343 76.7227 253.407 76.8672 253.696C80.607 255.765 84.2024 257.546 87.8841 259.276C87.9705 259.225 87.7761 259.273 87.9415 259.542C89.0691 260.16 90.0313 260.508 91.3268 260.954C93.2797 262.137 94.8071 263.406 96.5348 264.277C104.489 268.286 112.56 272.067 120.476 276.149C133.886 283.064 147.21 290.144 160.746 297.463C175.98 305.816 191.038 313.861 206.095 321.905C203.049 338.858 206.361 355.191 211.13 371.327C212.083 374.549 214.179 377.42 215.498 380.557C215.885 381.477 215.412 382.758 214.75 383.959C213.613 383.864 213.057 383.682 212.502 383.5C212.502 383.5 212.428 383.542 212.234 383.236C209.409 381.551 206.779 380.172 204.148 378.793C204.148 378.793 204.051 378.896 203.93 378.589C201.568 377.143 199.326 376.003 197.084 374.863C197.084 374.863 197.023 374.961 196.891 374.671C195.99 374.063 195.221 373.746 194.453 373.428C194.453 373.428 194.341 373.453 194.223 373.202C191.883 371.799 189.66 370.646 187.438 369.494C187.438 369.494 187.217 369.77 187.143 369.382C186.369 368.703 185.669 368.411 184.97 368.119Z" fill="#FDFCFA"/>
<path d="M206.417 321.987C191.038 313.861 175.98 305.817 161.166 297.412C162.54 297.214 163.828 297.078 164.777 297.581C177 304.053 189.148 310.664 201.377 317.123C204.806 318.934 208.435 320.366 212.094 322.117C212.216 322.262 212.465 322.55 212.465 322.55C210.556 322.39 208.647 322.23 206.417 321.987Z" fill="#BA7B57"/>
<path d="M417.369 192.982C420.422 190.126 423.633 186.945 427.286 184.4C432.901 180.489 438.795 176.973 444.641 173.406C445.39 172.949 446.564 173.191 447.946 173.186C438.142 179.824 427.933 186.383 417.369 192.982Z" fill="#B77050"/>
<path d="M388.576 211.23C388.25 211.101 388.215 210.845 388.306 210.787C397.613 204.841 406.93 198.91 416.633 192.996C407.656 199.075 398.291 205.135 388.576 211.23Z" fill="#B77050"/>
<path d="M361.004 299.988C361.321 300.462 361.638 300.935 361.977 301.709C361.999 302.008 362 301.999 361.602 301.998C355.805 302.661 350.406 303.325 344.999 303.727C344.983 303.291 344.975 303.117 344.967 302.942C347.733 301.005 350.5 299.067 353.94 297.06C355.072 296.994 355.531 296.996 356.035 297.366C357.721 298.485 359.362 299.236 361.004 299.988Z" fill="#BD5D31"/>
<path d="M384.006 279.994C381.344 282.414 375.856 281.932 376.683 287.849C374.356 287.479 372.467 287.178 370.161 286.766C374.69 283.208 379.637 279.763 385.127 276.194C385.67 276.069 386.101 276.14 386.101 276.14C385.425 277.213 384.749 278.286 384.036 279.679C384 280 384.006 279.994 384.006 279.994Z" fill="#BA5F38"/>
<path d="M323.472 252.131C325.731 249.982 328.152 247.483 331.01 245.671C335.387 242.898 340.064 240.598 345.006 238.172C338.21 242.861 331.02 247.475 323.472 252.131Z" fill="#B77050"/>
<path d="M239.575 372.937C239.897 373.211 240.006 373.659 239.833 373.846C235.575 378.452 231.101 382.746 224.166 383.832C228.917 380.164 234.074 376.578 239.575 372.937Z" fill="#BD5D31"/>
<path d="M386.425 276.102C386.101 276.14 385.67 276.069 385.452 276.062C390.225 272.691 395.216 269.328 400.542 265.874C400.906 267.209 400.934 268.636 400.95 270.486C398.439 271.401 395.94 271.891 393.207 272.669C390.897 273.993 388.823 275.029 386.425 276.102Z" fill="#BB633B"/>
<path d="M327.014 316.018C325.702 317.344 324.594 319.024 323.035 319.92C319.718 321.827 316.167 323.326 312.331 324.977C316.731 321.663 321.511 318.364 326.641 315.255C326.998 315.635 327.006 315.827 327.014 316.018Z" fill="#BF6037"/>
<path d="M373.368 220.929C376.214 215.294 381.896 213.286 387.839 211.188C383.387 214.489 378.553 217.701 373.368 220.929Z" fill="#B77050"/>
<path d="M248.394 299.944C249.907 298.296 251.591 296.351 253.668 295.017C257.097 292.815 260.78 291.007 264.73 289.073C259.649 292.716 254.195 296.319 248.394 299.944Z" fill="#BA7B57"/>
<path d="M431.96 246.992C431.465 246.963 430.969 246.934 430.109 246.818C433.52 244.098 437.296 241.466 441.412 238.758C440.4 240.763 439.049 242.843 436.988 244.969C434.84 245.675 433.4 246.334 431.96 246.992Z" fill="#BA5F38"/>
<path d="M452.287 218.002C457.214 221.925 457.482 225.466 452.668 227.916C452.474 224.563 452.294 221.442 452.287 218.002Z" fill="#D9E6F0"/>
<path d="M356.307 231.821C358.442 226.973 363.053 225.314 368.201 223.944C364.584 226.569 360.618 229.187 356.307 231.821Z" fill="#B77050"/>
<path d="M212.024 319.191C215.982 317.76 219.941 316.328 224.259 314.901C220.782 317.372 216.945 319.838 212.787 322.427C212.465 322.55 212.216 322.262 212.104 321.768C212.003 320.579 212.013 319.885 212.024 319.191Z" fill="#BA7B57"/>
<path d="M369.311 286.732C368.299 288.33 366.954 290.002 365.307 291.827C363.77 292.287 362.536 292.595 360.912 292.84C363.34 290.787 366.159 288.797 369.311 286.732Z" fill="#BA5F38"/>
<path d="M344.633 303.021C344.975 303.116 344.983 303.291 344.987 304.101C344.965 305.481 344.947 306.225 344.928 306.97C342.201 307.622 339.474 308.273 336.364 308.953C338.754 307.022 341.527 305.061 344.633 303.021Z" fill="#BD5E37"/>
<path d="M287.622 340.991C287.196 345.167 283.916 346.122 280.016 346.631C282.187 344.68 284.733 342.859 287.622 340.991Z" fill="#BF6037"/>
<path d="M231.307 310.793C233.718 308.851 236.471 306.912 239.602 305.012C237.204 306.966 234.427 308.882 231.307 310.793Z" fill="#BA7B57"/>
<path d="M335.643 309.022C333.848 310.63 331.713 312.28 329.195 313.872C330.975 312.231 333.139 310.647 335.643 309.022Z" fill="#BD5E37"/>
<path d="M349.347 235.958C349.016 231.686 352.336 232.283 355.403 231.93C353.758 233.263 351.724 234.595 349.347 235.958Z" fill="#B77050"/>
<path d="M355.99 296.999C355.531 296.996 355.072 296.994 354.27 296.977C355.73 295.682 357.533 294.402 359.669 293.086C359.439 294.165 358.876 295.278 357.788 296.675C356.838 296.972 356.414 296.985 355.99 296.999Z" fill="#BA5F38"/>
<path d="M221.602 384.907C221.976 385.622 221.987 386.411 221.747 387.6C221.496 387.999 221.001 388.012 221.001 388.012C219.71 387.599 218.419 387.185 217.064 386.418C218.414 385.703 219.826 385.343 221.602 384.907Z" fill="#BD5D31"/>
<path d="M246.277 368.617C245.234 369.674 243.866 370.79 242.121 371.819C243.147 370.713 244.55 369.695 246.277 368.617Z" fill="#BD5D31"/>
<path d="M241.548 304.208C242.372 303.236 243.524 302.206 245.071 301.297C244.269 302.328 243.072 303.239 241.548 304.208Z" fill="#BA7B57"/>
<path d="M369.528 223.252C370.006 222.578 370.808 221.847 372.009 221.2C371.556 221.922 370.705 222.559 369.528 223.252Z" fill="#B77050"/>
<path d="M225.555 314.298C226.231 313.557 227.233 312.769 228.588 311.999C227.922 312.762 226.902 313.507 225.555 314.298Z" fill="#BA7B57"/>
<path d="M212.413 383.819C213.057 383.682 213.613 383.864 214.458 384.111C214.748 384.176 214.856 384.604 214.925 384.813C214.525 385.329 214.057 385.636 213.294 385.956C212.775 385.36 212.55 384.749 212.413 383.819Z" fill="#BD5D31"/>
<path d="M310.455 325.793C310.022 326.451 309.288 327.179 308.17 327.836C308.576 327.13 309.365 326.496 310.455 325.793Z" fill="#BF6037"/>
<path d="M327.345 315.956C327.006 315.827 326.998 315.635 326.975 315.157C327.394 314.533 327.828 314.197 328.54 313.818C328.438 314.482 328.057 315.188 327.345 315.956Z" fill="#BD5E37"/>
<path d="M347.486 237.209C347.584 236.835 347.977 236.426 348.677 236.01C348.584 236.394 348.182 236.784 347.486 237.209Z" fill="#B77050"/>
<path d="M241.532 371.737C241.402 372.109 240.974 372.519 240.219 372.921C240.34 372.534 240.787 372.155 241.532 371.737Z" fill="#BD5D31"/>
<path d="M307.546 327.765C307.415 328.127 306.99 328.533 306.242 328.932C306.364 328.552 306.808 328.181 307.546 327.765Z" fill="#BF6037"/>
<path d="M223.532 383.798C223.57 384.071 223.293 384.397 222.674 384.726C222.628 384.437 222.922 384.143 223.532 383.798Z" fill="#BD5D31"/>
<path d="M311.707 324.981C311.748 325.214 311.522 325.479 311.025 325.77C310.983 325.535 311.211 325.274 311.707 324.981Z" fill="#BF6037"/>
<path d="M429.539 246.77C429.627 247.037 429.446 247.353 428.973 247.662C428.877 247.376 429.074 247.097 429.539 246.77Z" fill="#BA5F38"/>
<path d="M346.272 237.958C346.237 237.715 346.459 237.469 346.939 237.224C346.975 237.468 346.753 237.712 346.272 237.958Z" fill="#B77050"/>
<path d="M432.009 247.341C433.4 246.334 434.84 245.675 436.637 245.016C437.243 246.811 437.491 248.605 437.872 250.705C438.005 251.01 438.002 251.506 438.002 251.753C436.02 250.564 434.039 249.127 432.009 247.341Z" fill="#C8521B"/>
<path d="M211.761 318.956C212.013 319.885 212.003 320.579 211.982 321.622C208.435 320.366 204.806 318.934 201.377 317.123C189.148 310.664 177 304.052 164.777 297.581C163.828 297.078 162.54 297.214 160.99 297.103C147.21 290.144 133.886 283.064 120.476 276.149C112.56 272.067 104.489 268.286 96.5348 264.277C94.8071 263.406 93.2797 262.137 91.2585 260.61C89.83 259.869 88.8031 259.571 87.7761 259.273C87.7761 259.273 87.9705 259.226 87.8351 258.915C84.7894 255.29 81.4587 252.864 76.7227 253.407C76.7227 253.407 76.9627 253.343 76.8199 252.984C73.8262 250.773 71.0844 248.715 68.0907 247.134C65.5564 245.796 62.7305 245.01 59.9655 243.639C56.9313 241.535 53.9653 239.77 50.595 238C49.3845 238.082 48.5783 238.168 47.7721 238.255C47.7721 238.255 47.87 238.192 47.7597 237.923C47.0253 237.526 46.4012 237.397 45.7771 237.268C45.7771 237.268 45.9665 237.203 45.8339 236.901C38.9012 232.714 32.1849 228.67 25.2618 225.018C22.2899 223.45 20.4678 218.968 15.9351 220.976C14.493 220.086 13.0508 219.196 11.3071 218.173C11.0678 212.965 13.8414 214.764 16.7033 215.945C25.4414 220.027 33.9281 223.922 42.222 228.191C60.7039 237.705 79.0984 247.389 97.5116 257.035C112.427 264.849 127.265 272.812 142.238 280.513C151.143 285.093 160.297 289.189 169.234 293.711C174.075 296.16 178.661 299.107 183.421 301.722C191.207 305.998 199.089 310.104 206.82 314.476C208.608 315.487 209.951 317.285 211.761 318.956Z" fill="#D57C49"/>
<path d="M16.9171 257.405C18.3055 259.227 19.9491 261.317 21.0412 263.665C23.2134 268.333 25.0822 273.143 27.0787 278.284C23.695 271.712 20.3089 264.751 16.9171 257.405Z" fill="#FAE5D5"/>
<path d="M27.7708 279.509C31.7577 281.554 35.8516 283.932 39.9612 286.67C35.9439 284.634 31.9109 282.238 27.7708 279.509Z" fill="#FAE5D5"/>
<path d="M40.0439 287.252C40.2845 286.992 40.5539 287.091 40.8884 287.507C41.0003 287.697 40.5205 287.75 40.5205 287.75C40.5205 287.75 40.1195 287.482 40.0439 287.252Z" fill="#FAE5D5"/>
<path d="M54.9108 295.434C55.1105 295.298 55.4241 295.396 55.8648 295.718C55.6696 295.849 55.3471 295.759 54.9108 295.434Z" fill="#FAE5D5"/>
<path d="M58.0933 297.195C58.2811 296.97 58.5436 297.051 58.8855 297.429C59.002 297.605 58.5703 297.611 58.5703 297.611C58.5703 297.611 58.2053 297.38 58.0933 297.195Z" fill="#FAE5D5"/>
<path d="M87.616 313.559C87.8408 313.404 88.2339 313.5 88.7679 313.877C88.5339 314.043 88.1591 313.926 87.616 313.559Z" fill="#FAE8D5"/>
<path d="M88.9627 314.357C89.2088 314.07 89.5127 314.169 89.8929 314.635C89.7038 314.76 89.3876 314.675 88.9627 314.357Z" fill="#FAE8D5"/>
<path d="M158.08 353.273C162.99 355.38 167.944 357.776 172.962 360.51C172.573 360.885 172.12 360.922 171.329 361.012C167.322 359.019 163.652 356.974 159.637 354.885C158.903 354.415 158.514 353.989 158.08 353.273Z" fill="#F9EBD7"/>
<path d="M152.045 349.378C152.888 349.451 153.896 349.791 154.972 350.467C154.097 350.417 153.153 350.031 152.045 349.378Z" fill="#F9EBD7"/>
<path d="M155.765 351.479C156.415 351.531 157.173 351.896 157.976 352.608C157.305 352.567 156.589 352.179 155.765 351.479Z" fill="#F9EBD7"/>
<path d="M110.961 326.516C111.773 326.64 112.751 327.036 113.854 327.748C113.028 327.638 112.078 327.212 110.961 326.516Z" fill="#FAE8D5"/>
<path d="M152.734 353.353C152.99 353.368 153.131 353.505 153.271 353.643C153.053 353.587 152.835 353.531 152.734 353.353Z" fill="#C4511C"/>
<path d="M151.263 351.653C151.005 351.638 150.865 351.5 150.724 351.363C150.943 351.419 151.162 351.475 151.263 351.653Z" fill="#C4511C"/>
<path d="M221.059 388.365C221.001 388.012 221.496 387.999 221.743 387.994C223.542 388.437 225.095 388.886 226.648 389.334C226.449 389.936 226.251 390.539 226.052 391.142C224.407 390.334 222.762 389.526 221.059 388.365Z" fill="#C05B2C"/>
<path d="M204.111 379.189C206.779 380.172 209.409 381.551 212.212 383.199C209.271 382.909 205.65 383.433 204.111 379.189Z" fill="#BD5D31"/>
<path d="M197.106 375.226C199.326 376.003 201.568 377.143 203.997 378.566C201.832 377.762 199.48 376.675 197.106 375.226Z" fill="#BD5D31"/>
<path d="M187.405 369.868C189.66 370.647 191.883 371.799 194.269 373.237C192.078 372.429 189.725 371.335 187.405 369.868Z" fill="#BD5D31"/>
<path d="M185.044 368.456C185.669 368.411 186.369 368.703 187.229 369.228C186.632 369.239 185.875 369.016 185.044 368.456Z" fill="#BD5D31"/>
<path d="M194.45 373.799C195.221 373.746 195.99 374.063 196.941 374.643C196.231 374.659 195.34 374.414 194.45 373.799Z" fill="#BD5D31"/>
<path d="M173.754 361.442C173.963 361.304 174.319 361.414 174.827 361.77C174.62 361.908 174.26 361.8 173.754 361.442Z" fill="#F9EBD7"/>
<path d="M345.322 306.987C344.947 306.225 344.965 305.481 344.995 304.363C350.406 303.325 355.805 302.661 361.606 301.998C360.222 303.577 358.435 305.155 356.335 306.875C352.587 307.012 349.151 307.008 345.322 306.987Z" fill="#C75319"/>
<path d="M356.035 297.366C356.414 296.985 356.838 296.972 357.578 296.937C358.906 297.71 359.917 298.505 360.966 299.644C359.362 299.236 357.721 298.485 356.035 297.366Z" fill="#CA521D"/>
<path d="M383.997 280.003C385.536 280.073 387.078 280.14 388.62 280.208C388.8 280.596 388.979 280.984 389.159 281.372C387.923 282.534 386.688 283.696 384.586 285.673C384.316 283.375 384.164 282.077 384.009 280.387C384.006 279.994 384 280 383.997 280.003Z" fill="#BA5F38"/>
<path d="M60.0337 243.98C62.7305 245.01 65.5564 245.796 68.0907 247.134C71.0844 248.715 73.8262 250.773 76.6963 252.996C70.6656 250.402 64.6158 247.438 58.6628 244.232C59.1843 243.986 59.609 243.983 60.0337 243.98Z" fill="#B77D59"/>
<path d="M76.8672 253.696C81.4587 252.864 84.7894 255.29 87.7487 258.965C84.2024 257.546 80.607 255.766 76.8672 253.696Z" fill="#B77D59"/>
<path d="M59.9655 243.639C59.609 243.983 59.1844 243.986 58.4423 243.981C55.5881 242.767 53.0512 241.559 50.3882 239.863C50.5079 238.918 50.7536 238.462 50.9993 238.005C53.9653 239.77 56.9313 241.535 59.9655 243.639Z" fill="#BA7B57"/>
<path d="M87.9415 259.542C88.8031 259.571 89.83 259.869 90.9252 260.512C90.0313 260.508 89.0691 260.16 87.9415 259.542Z" fill="#B77D59"/>
<path d="M50.595 238C50.7536 238.462 50.5079 238.918 50.1552 239.611C49.3773 239.49 48.7064 239.132 47.9038 238.514C48.5783 238.168 49.3845 238.082 50.595 238Z" fill="#B87A56"/>
<path d="M45.9283 237.542C46.4012 237.397 47.0253 237.526 47.752 237.981C47.263 238.143 46.6713 237.979 45.9283 237.542Z" fill="#B87A56"/>
<path d="M174.81 234.999C169.309 234.999 164.033 234.931 158.761 235.041C157.133 235.075 156.722 234.582 156.737 233.013C156.808 225.706 156.752 218.398 156.775 211.091C156.779 210.009 156.564 209.049 156.088 208.067C149.315 194.093 149.28 180.106 156.128 166.143C156.611 165.16 156.785 164.189 156.781 163.109C156.749 155.877 156.805 148.644 156.721 141.413C156.702 139.774 157.089 139.231 158.832 139.257C165.914 139.365 172.998 139.279 180.081 139.324C181.406 139.332 182.543 139.057 183.705 138.39C200.545 128.719 218.824 124.361 238.109 124.022C257.228 123.686 275.602 127.192 292.602 136.172C297.136 138.567 301.526 139.597 306.526 139.358C311.638 139.114 316.772 139.373 321.894 139.267C323.523 139.234 323.914 139.77 323.898 141.308C323.825 148.464 323.876 155.621 323.839 162.777C323.832 164.166 324.109 165.415 324.711 166.678C331.244 180.394 331.236 194.115 324.599 207.796C324.052 208.923 323.853 210.043 323.857 211.273C323.881 218.429 323.82 225.587 323.896 232.743C323.915 234.467 323.478 235.077 321.633 235.046C314.853 234.931 308.07 235.042 301.289 234.972C299.422 234.952 297.825 235.363 296.175 236.292C280.595 245.062 263.75 249.341 245.963 250.114C227.488 250.916 209.666 248.015 192.684 240.51C191.103 239.811 189.445 239.193 188.028 238.234C184.065 235.552 179.787 234.391 174.81 234.999Z" fill="#E9D3A5"/>
<path d="M228.854 125.47C252.876 123.566 275.552 127.304 296.531 139.25C297.711 139.921 298.849 140.199 300.154 140.195C306.783 140.177 313.413 140.258 320.041 140.142C322.016 140.107 322.75 140.498 322.698 142.679C322.538 149.379 322.655 156.084 322.623 162.787C322.617 164.094 322.858 165.256 323.446 166.457C330.179 180.208 330.091 193.982 323.375 207.713C322.857 208.77 322.621 209.786 322.625 210.944C322.652 217.873 322.585 224.802 322.67 231.73C322.689 233.325 322.239 233.756 320.656 233.735C314.103 233.647 307.548 233.736 300.995 233.673C299.205 233.656 297.669 234.041 296.091 234.945C281.528 243.278 265.751 247.535 249.083 248.699C230.165 250.019 211.871 247.38 194.346 239.968C191.017 238.56 187.735 237.027 184.68 235.096C182.937 233.993 181.156 233.647 179.135 233.672C172.808 233.752 166.478 233.626 160.153 233.753C158.224 233.791 157.775 233.174 157.802 231.346C157.902 224.644 157.819 217.94 157.853 211.237C157.86 209.846 157.589 208.598 156.971 207.34C150.325 193.818 150.387 180.256 156.892 166.711C157.531 165.38 157.865 164.08 157.856 162.606C157.817 155.828 157.903 149.048 157.806 142.271C157.781 140.53 158.34 140.124 159.994 140.145C166.849 140.229 173.705 140.162 180.56 140.191C181.725 140.195 182.731 139.955 183.759 139.358C197.652 131.287 212.699 126.925 228.854 125.47Z" fill="#62450E"/>
<path d="M228.436 127.575C242.091 126.348 255.411 127.023 268.571 130.203C278.505 132.604 287.961 136.19 296.722 141.49C297.756 142.115 298.788 142.293 299.937 142.29C306.19 142.271 312.445 142.327 318.697 142.236C320.4 142.212 321.016 142.608 320.98 144.452C320.857 150.777 320.945 157.106 320.916 163.433C320.911 164.665 321.179 165.738 321.743 166.865C328.221 179.83 328.378 192.873 321.985 205.921C321.271 207.378 320.889 208.804 320.906 210.441C320.974 216.693 320.89 222.946 320.966 229.197C320.984 230.641 320.633 231.109 319.12 231.088C312.717 231.001 306.313 231.07 299.909 231.032C298.662 231.024 297.602 231.303 296.512 231.945C282.175 240.4 266.575 244.73 250.06 245.975C232.154 247.325 214.779 244.969 198.047 238.314C194.058 236.727 190.138 234.956 186.494 232.692C184.552 231.486 182.634 230.967 180.36 231.014C174.636 231.132 168.907 230.979 163.183 231.095C161.378 231.131 160.742 230.772 160.787 228.803C160.93 222.554 160.827 216.3 160.852 210.048C160.856 208.895 160.647 207.869 160.112 206.812C153.318 193.389 153.269 179.94 160.127 166.519C160.664 165.469 160.86 164.426 160.855 163.271C160.828 157.019 160.898 150.766 160.799 144.516C160.772 142.803 161.132 142.188 162.997 142.226C169.248 142.354 175.503 142.272 181.756 142.281C182.739 142.283 183.671 142.258 184.576 141.713C198.026 133.611 212.716 129.324 228.436 127.575Z" fill="#FFEDC9"/>
</g>
<defs>
<clipPath id="clip0_10_453">
<rect width="474" height="474" fill="white"/>
</clipPath>
</defs>
</svg>
